<svg id="Group_175285" data-name="Group 175285" xmlns="http://www.w3.org/2000/svg" width="120.903" height="120.903" viewBox="0 0 120.903 120.903">
  <path id="Ellipse_7907" data-name="Ellipse 7907" d="M60.451,1A59.169,59.169,0,0,0,27.212,11.153,59.628,59.628,0,0,0,5.672,37.311a59.372,59.372,0,0,0,5.481,56.38,59.628,59.628,0,0,0,26.158,21.541,59.372,59.372,0,0,0,56.38-5.481,59.628,59.628,0,0,0,21.541-26.158,59.372,59.372,0,0,0-5.481-56.38A59.628,59.628,0,0,0,83.592,5.672,59.078,59.078,0,0,0,60.451,1m0-1A60.451,60.451,0,1,1,0,60.451,60.451,60.451,0,0,1,60.451,0Z" transform="translate(0 0)" fill="#fff"/>
  <path id="snapchat" d="M28.914,11.814A14.383,14.383,0,0,1,43.163,26.071c0,1.824.058,3.5.161,5.051A1.772,1.772,0,0,0,45.5,32.736l2.434-.57a1.362,1.362,0,0,1,1.636,1.012,1.791,1.791,0,0,1-1.156,2.077L44.72,36.745a1.986,1.986,0,0,0-1.171,2.362c2.964,10.956,11.241,9.817,11.241,11.244,0,1.792-6.239,2.046-6.8,2.609s-.024,3.3-1.284,3.83a2.681,2.681,0,0,1-.986.135c-.949,0-2.29-.185-3.7-.185a8.681,8.681,0,0,0-3.634.66c-2.988,1.38-5.868,3.958-9.439,3.958S22.489,58.78,19.5,57.4a8.679,8.679,0,0,0-3.634-.66c-1.414,0-2.756.185-3.7.185a2.684,2.684,0,0,1-.986-.135c-1.259-.53-.72-3.266-1.284-3.83s-6.8-.817-6.8-2.61c0-1.428,8.278-.288,11.241-11.244a1.986,1.986,0,0,0-1.171-2.362L9.466,35.254A1.79,1.79,0,0,1,8.31,33.177a1.362,1.362,0,0,1,1.636-1.012l2.434.57a1.772,1.772,0,0,0,2.176-1.615c.1-1.547.159-3.227.162-5.051a14.338,14.338,0,0,1,14.2-14.257m0-3.09h0A16.917,16.917,0,0,0,22.2,10.109,17.589,17.589,0,0,0,13,19.348a17.112,17.112,0,0,0-1.377,6.719c0,1.139-.025,2.244-.07,3.3l-.905-.212a4.447,4.447,0,0,0-5.358,3.351A4.883,4.883,0,0,0,8.36,38.139l2.711,1.094c-1.8,5.51-5.105,6.566-7.335,7.277a11.143,11.143,0,0,0-1.589.593A3.569,3.569,0,0,0,0,50.352a4.025,4.025,0,0,0,1.675,3.229,7.128,7.128,0,0,0,2.036,1.037,25.445,25.445,0,0,0,3.519.837,8,8,0,0,0,.255,1.25,4.353,4.353,0,0,0,2.494,2.934,5.637,5.637,0,0,0,2.184.376c.541,0,1.114-.042,1.719-.087.65-.048,1.322-.1,1.985-.1a5.7,5.7,0,0,1,2.338.375c.75.346,1.544.813,2.386,1.307,2.343,1.376,5,2.936,8.349,2.936s6.006-1.56,8.349-2.936c.842-.494,1.637-.961,2.386-1.307a5.7,5.7,0,0,1,2.338-.375c.663,0,1.335.05,1.985.1.606.045,1.178.087,1.719.087a5.637,5.637,0,0,0,2.184-.376A4.353,4.353,0,0,0,50.4,56.705a7.984,7.984,0,0,0,.255-1.25,25.461,25.461,0,0,0,3.519-.837,7.126,7.126,0,0,0,2.036-1.037,4.026,4.026,0,0,0,1.675-3.229A3.569,3.569,0,0,0,55.732,47.1a11.142,11.142,0,0,0-1.589-.593c-2.229-.711-5.539-1.767-7.335-7.277L49.52,38.14a4.883,4.883,0,0,0,3.066-5.632,4.424,4.424,0,0,0-1.606-2.53,4.458,4.458,0,0,0-3.752-.82l-.906.212c-.045-1.058-.069-2.163-.07-3.3a17.031,17.031,0,0,0-1.388-6.726,17.654,17.654,0,0,0-9.231-9.233,16.978,16.978,0,0,0-6.718-1.383Z" transform="translate(32.271 23.227)" fill="#fff"/>
  <path id="snapchat_-_Outline" data-name="snapchat - Outline" d="M28.913,8.474h0a17.228,17.228,0,0,1,6.818,1.4,17.9,17.9,0,0,1,9.362,9.364A17.28,17.28,0,0,1,46.5,26.066c0,1.024.021,2.028.058,2.99l.611-.143a4.7,4.7,0,0,1,5.659,3.54,5.133,5.133,0,0,1-3.22,5.92l-2.49,1.005c1.772,5.2,4.972,6.217,7.1,6.9a11.32,11.32,0,0,1,1.624.607,3.812,3.812,0,0,1,2.287,3.472,4.27,4.27,0,0,1-1.773,3.427,7.37,7.37,0,0,1-2.107,1.075,24.669,24.669,0,0,1-3.377.814,7.9,7.9,0,0,1-.238,1.109A4.6,4.6,0,0,1,48,59.869a5.875,5.875,0,0,1-2.281.4c-.55,0-1.126-.043-1.736-.088-.649-.048-1.315-.1-1.968-.1a5.473,5.473,0,0,0-2.233.352c-.739.342-1.529.805-2.364,1.3-2.371,1.392-5.057,2.97-8.475,2.97s-6.1-1.578-8.475-2.97c-.838-.492-1.627-.955-2.365-1.3a5.475,5.475,0,0,0-2.233-.352c-.656,0-1.322.049-1.967.1-.611.045-1.188.088-1.738.088a5.875,5.875,0,0,1-2.281-.4,4.6,4.6,0,0,1-2.636-3.093,7.905,7.905,0,0,1-.238-1.109,24.636,24.636,0,0,1-3.378-.814,7.371,7.371,0,0,1-2.107-1.075A4.27,4.27,0,0,1-.25,50.352,3.812,3.812,0,0,1,2.036,46.88a11.322,11.322,0,0,1,1.624-.607c2.128-.679,5.327-1.7,7.1-6.9l-2.49-1.005A5.133,5.133,0,0,1,5.05,32.453a4.675,4.675,0,0,1,1.7-2.674,4.707,4.707,0,0,1,3.962-.866l.611.143c.037-.962.057-1.966.058-2.99a17.36,17.36,0,0,1,1.4-6.817A17.839,17.839,0,0,1,22.1,9.879,17.165,17.165,0,0,1,28.913,8.474ZM46.086,29.681l-.013-.3C46.028,28.32,46,27.205,46,26.067a16.783,16.783,0,0,0-1.368-6.628,17.4,17.4,0,0,0-9.1-9.1,16.73,16.73,0,0,0-6.62-1.363l0-.25v.25A16.668,16.668,0,0,0,22.3,10.339a17.339,17.339,0,0,0-9.064,9.107,16.863,16.863,0,0,0-1.357,6.621c0,1.139-.025,2.253-.071,3.313l-.013.3-1.2-.281a4.2,4.2,0,0,0-5.057,3.161,4.648,4.648,0,0,0,2.909,5.344l.007,0,2.928,1.182-.072.222c-1.835,5.632-5.242,6.719-7.5,7.438a10.969,10.969,0,0,0-1.554.579A3.326,3.326,0,0,0,.25,50.352a3.781,3.781,0,0,0,1.577,3.03,6.886,6.886,0,0,0,1.966,1,25.43,25.43,0,0,0,3.483.828l.179.033.024.18a7.735,7.735,0,0,0,.247,1.211,4.111,4.111,0,0,0,2.351,2.775,5.4,5.4,0,0,0,2.087.357c.532,0,1.1-.042,1.7-.086.655-.049,1.33-.1,2-.1a5.932,5.932,0,0,1,2.443.4c.76.351,1.559.82,2.4,1.317,2.319,1.362,4.943,2.9,8.225,2.9s5.906-1.541,8.222-2.9c.847-.5,1.647-.967,2.408-1.319a5.931,5.931,0,0,1,2.443-.4c.671,0,1.347.05,2,.1.605.045,1.173.087,1.7.087a5.4,5.4,0,0,0,2.087-.357,4.111,4.111,0,0,0,2.351-2.775,7.717,7.717,0,0,0,.247-1.211l.023-.18.179-.033a25.469,25.469,0,0,0,3.483-.828,6.884,6.884,0,0,0,1.966-1,3.781,3.781,0,0,0,1.577-3.03,3.325,3.325,0,0,0-2.009-3.024,10.963,10.963,0,0,0-1.554-.579c-2.254-.719-5.661-1.806-7.5-7.438l-.072-.222,2.934-1.184a4.648,4.648,0,0,0,2.909-5.344,4.174,4.174,0,0,0-1.515-2.387,4.208,4.208,0,0,0-3.541-.774ZM28.914,11.564a14.151,14.151,0,0,1,5.6,1.154,14.815,14.815,0,0,1,7.74,7.742,14.207,14.207,0,0,1,1.158,5.611c0,1.769.056,3.463.161,5.034a1.522,1.522,0,0,0,1.869,1.388l2.433-.57a1.612,1.612,0,0,1,1.937,1.2A2.041,2.041,0,0,1,48.5,35.488l-3.689,1.489a1.738,1.738,0,0,0-1.023,2.065c2.116,7.822,6.913,9.352,9.49,10.174,1.06.338,1.76.561,1.76,1.135,0,1.4-2.755,1.91-4.969,2.322a8.548,8.548,0,0,0-1.908.465,2.962,2.962,0,0,0-.258,1.256c-.091,1-.2,2.248-1.106,2.627a2.856,2.856,0,0,1-1.083.154c-.436,0-.958-.039-1.51-.079-.669-.05-1.427-.106-2.195-.106a8.37,8.37,0,0,0-3.529.637c-.876.4-1.73.906-2.633,1.437-2.13,1.251-4.333,2.545-6.911,2.545s-4.781-1.294-6.911-2.545c-.9-.531-1.757-1.032-2.633-1.437a8.37,8.37,0,0,0-3.529-.637c-.768,0-1.526.056-2.195.106-.552.041-1.073.079-1.51.079a2.857,2.857,0,0,1-1.083-.154c-.9-.379-1.015-1.625-1.106-2.627a2.959,2.959,0,0,0-.258-1.257,8.561,8.561,0,0,0-1.907-.464c-2.214-.412-4.969-.924-4.969-2.322,0-.574.7-.8,1.76-1.135,2.577-.822,7.374-2.353,9.49-10.174a1.738,1.738,0,0,0-1.023-2.065L9.378,35.488a2.041,2.041,0,0,1-1.311-2.365A1.612,1.612,0,0,1,10,31.922l2.433.57A1.522,1.522,0,0,0,14.306,31.1c.1-1.573.159-3.267.161-5.034a14.287,14.287,0,0,1,1.15-5.61,14.75,14.75,0,0,1,7.7-7.742A14.1,14.1,0,0,1,28.914,11.564ZM45.092,33.033a2.031,2.031,0,0,1-2.017-1.9c-.105-1.582-.16-3.287-.162-5.067a14.206,14.206,0,0,0-14-14.007A14.008,14.008,0,0,0,14.967,26.071c0,1.778-.057,3.483-.162,5.067a2.022,2.022,0,0,1-2.482,1.841l-2.434-.57a1.112,1.112,0,0,0-1.335.823,1.541,1.541,0,0,0,.994,1.787l.011,0,3.694,1.491a2.238,2.238,0,0,1,1.319,2.659,15.05,15.05,0,0,1-4.76,7.979,14.48,14.48,0,0,1-5.06,2.541c-.694.221-1.412.45-1.412.659,0,.982,2.855,1.513,4.56,1.83a5.55,5.55,0,0,1,2.17.6,2.748,2.748,0,0,1,.4,1.565c.083.913.177,1.948.8,2.211a2.459,2.459,0,0,0,.889.115c.418,0,.93-.038,1.473-.078.677-.05,1.445-.107,2.232-.107a8.848,8.848,0,0,1,3.739.683c.9.415,1.8.946,2.677,1.46,2.072,1.217,4.215,2.476,6.657,2.476s4.585-1.259,6.657-2.476c.874-.513,1.778-1.044,2.677-1.46a8.848,8.848,0,0,1,3.739-.683c.787,0,1.554.057,2.232.107.542.04,1.055.078,1.473.078a2.458,2.458,0,0,0,.889-.115c.625-.263.719-1.3.8-2.211a2.748,2.748,0,0,1,.4-1.565,5.55,5.55,0,0,1,2.17-.6c1.706-.317,4.56-.848,4.56-1.83,0-.209-.718-.438-1.412-.659a14.48,14.48,0,0,1-5.06-2.541,15.051,15.051,0,0,1-4.76-7.979,2.238,2.238,0,0,1,1.319-2.659l3.7-1.5a1.541,1.541,0,0,0,.994-1.787,1.112,1.112,0,0,0-1.335-.823l-2.434.571A2.041,2.041,0,0,1,45.092,33.033Z" transform="translate(32.271 23.227)" fill="#fff"/>
</svg>
