<svg xmlns="http://www.w3.org/2000/svg" xmlns:xlink="http://www.w3.org/1999/xlink" width="120.903" height="120.903" viewBox="0 0 120.903 120.903">
  <defs>
    <clipPath id="clip-path">
      <path id="Path_63592" data-name="Path 63592" d="M0-682.665H54.335v54.335H0Z" transform="translate(0 682.665)" fill="#fff"/>
    </clipPath>
  </defs>
  <g id="Group_175282" data-name="Group 175282" transform="translate(0)">
    <path id="Ellipse_7910" data-name="Ellipse 7910" d="M60.451,1A59.169,59.169,0,0,0,27.212,11.153,59.628,59.628,0,0,0,5.672,37.311a59.372,59.372,0,0,0,5.481,56.38,59.628,59.628,0,0,0,26.158,21.541,59.372,59.372,0,0,0,56.38-5.481,59.628,59.628,0,0,0,21.541-26.158,59.372,59.372,0,0,0-5.481-56.38A59.628,59.628,0,0,0,83.592,5.672,59.078,59.078,0,0,0,60.451,1m0-1A60.451,60.451,0,1,1,0,60.451,60.451,60.451,0,0,1,60.451,0Z" transform="translate(0 0)" fill="#fff"/>
    <g id="Group_175281" data-name="Group 175281" transform="translate(33.312 32.649)">
      <g id="Group_175280" data-name="Group 175280" transform="translate(0 0)" clip-path="url(#clip-path)">
        <path id="Path_63591" data-name="Path 63591" d="M-533.107-150.454h8.526a.5.5,0,0,1,.5.5,11.448,11.448,0,0,0,11.435,11.435.5.5,0,0,1,.5.5v8.525a.5.5,0,0,1-.5.5,20.8,20.8,0,0,1-11.435-3.392V-115a16.589,16.589,0,0,1-4.891,11.807A16.589,16.589,0,0,1-540.779-98.3a16.588,16.588,0,0,1-11.807-4.891A16.589,16.589,0,0,1-557.477-115a16.588,16.588,0,0,1,4.891-11.807,16.589,16.589,0,0,1,11.807-4.891.5.5,0,0,1,.5.5v8.525a.5.5,0,0,1-.5.5A7.181,7.181,0,0,0-547.952-115a7.181,7.181,0,0,0,7.173,7.173A7.181,7.181,0,0,0-533.607-115v-34.954A.5.5,0,0,1-533.107-150.454Zm8.035,1h-7.535V-115a8.182,8.182,0,0,1-8.173,8.173A8.182,8.182,0,0,1-548.952-115a8.183,8.183,0,0,1,7.673-8.157v-7.533a15.717,15.717,0,0,0-15.2,15.69,15.716,15.716,0,0,0,15.7,15.7,15.716,15.716,0,0,0,15.7-15.7v-18.334a.5.5,0,0,1,.272-.445.5.5,0,0,1,.52.039A19.806,19.806,0,0,0-513.146-130v-7.529a12.347,12.347,0,0,1-8.293-3.632A12.347,12.347,0,0,1-525.071-149.454Z" transform="translate(561.98 151.546)" fill="#fff"/>
      </g>
    </g>
  </g>
</svg>
