<svg xmlns="http://www.w3.org/2000/svg" xmlns:xlink="http://www.w3.org/1999/xlink" width="160.842" height="160.842" viewBox="0 0 160.842 160.842">
  <defs>
    <clipPath id="clip-path">
      <path id="Path_67516" data-name="Path 67516" d="M0-682.665H91.21v91.21H0Z" transform="translate(0 682.665)"/>
    </clipPath>
  </defs>
  <g id="Group_176175" data-name="Group 176175" transform="translate(-409.78 -5443.35)">
    <g id="Ellipse_7939" data-name="Ellipse 7939" opacity="0.15">
      <circle id="Ellipse_7939-2" data-name="Ellipse 7939" cx="80.421" cy="80.421" r="80.421" transform="translate(409.78 5443.35)" fill="#fff"/>
      <path id="Ellipse_7939_-_Outline" data-name="Ellipse 7939 - Outline" d="M80.421,1A80.012,80.012,0,0,0,64.414,2.614a78.98,78.98,0,0,0-28.4,11.95A79.656,79.656,0,0,0,7.241,49.507,79.014,79.014,0,0,0,2.614,64.414a80.2,80.2,0,0,0,0,32.014,78.98,78.98,0,0,0,11.95,28.4A79.656,79.656,0,0,0,49.507,153.6a79.014,79.014,0,0,0,14.907,4.627,80.2,80.2,0,0,0,32.014,0,78.98,78.98,0,0,0,28.4-11.95A79.656,79.656,0,0,0,153.6,111.335a79.014,79.014,0,0,0,4.627-14.907,80.2,80.2,0,0,0,0-32.014,78.98,78.98,0,0,0-11.95-28.4A79.656,79.656,0,0,0,111.335,7.241,79.014,79.014,0,0,0,96.428,2.614,80.012,80.012,0,0,0,80.421,1m0-1A80.421,80.421,0,1,1,0,80.421,80.421,80.421,0,0,1,80.421,0Z" transform="translate(409.78 5443.35)" fill="#fff"/>
    </g>
    <g id="Group_176131" data-name="Group 176131" transform="translate(444.964 5478.534)" clip-path="url(#clip-path)">
      <path id="Path_67513" data-name="Path 67513" d="M-14.062-267.459a9.658,9.658,0,0,1-4.377-1.051,9.706,9.706,0,0,1-3.326-2.8l-17.112-22.815a30.884,30.884,0,0,1-4.55-8.622,30.951,30.951,0,0,1-1.637-9.964,30.812,30.812,0,0,1,2.437-12.069,30.9,30.9,0,0,1,6.643-9.854,30.9,30.9,0,0,1,9.854-6.643,30.812,30.812,0,0,1,12.069-2.437,30.812,30.812,0,0,1,12.069,2.437,30.9,30.9,0,0,1,9.854,6.643,30.9,30.9,0,0,1,6.643,9.854,30.812,30.812,0,0,1,2.437,12.069,30.952,30.952,0,0,1-1.637,9.964,30.881,30.881,0,0,1-4.55,8.622L-6.358-271.312a9.706,9.706,0,0,1-3.327,2.8A9.658,9.658,0,0,1-14.062-267.459Zm0-71.258a26.033,26.033,0,0,0-26,26,25.78,25.78,0,0,0,5.187,15.586l17.112,22.814a4.593,4.593,0,0,0,3.7,1.854,4.593,4.593,0,0,0,3.7-1.854L6.754-297.127a25.779,25.779,0,0,0,5.187-15.586A26.033,26.033,0,0,0-14.062-338.717Z" transform="translate(59.667 344.78)" fill="#fff"/>
      <path id="Path_67514" data-name="Path 67514" d="M-99.541-36.582a9.637,9.637,0,0,1-9.626-9.626,9.637,9.637,0,0,1,9.626-9.626,9.637,9.637,0,0,1,9.626,9.626A9.637,9.637,0,0,1-99.541-36.582Zm0-14.252a4.631,4.631,0,0,0-4.626,4.626,4.631,4.631,0,0,0,4.626,4.626,4.631,4.631,0,0,0,4.626-4.626A4.631,4.631,0,0,0-99.541-50.833Z" transform="translate(145.146 78.273)" fill="#fff"/>
      <path id="Path_67515" data-name="Path 67515" d="M28.5,2.5H0A2.5,2.5,0,0,1-2.5,0,2.5,2.5,0,0,1,0-2.5H28.5A2.5,2.5,0,0,1,31,0,2.5,2.5,0,0,1,28.5,2.5Z" transform="translate(31.353 87.647)" fill="#fff"/>
    </g>
  </g>
</svg>
