<svg id="Group_175284" data-name="Group 175284" xmlns="http://www.w3.org/2000/svg" width="125.221" height="120.903" viewBox="0 0 125.221 120.903">
  <path id="Ellipse_7908" data-name="Ellipse 7908" d="M62.61,1A63.148,63.148,0,0,0,38.618,5.676a62.35,62.35,0,0,0-10.467,5.485,61.637,61.637,0,0,0-9.118,7.263,60.4,60.4,0,0,0-7.521,8.8,58.831,58.831,0,0,0-5.676,10.1,57.726,57.726,0,0,0,0,46.258,58.83,58.83,0,0,0,5.676,10.1,60.4,60.4,0,0,0,7.521,8.8,61.636,61.636,0,0,0,9.118,7.263,62.35,62.35,0,0,0,10.467,5.485,63.887,63.887,0,0,0,47.985,0,62.35,62.35,0,0,0,10.467-5.485,61.636,61.636,0,0,0,9.118-7.263,60.4,60.4,0,0,0,7.521-8.8,58.83,58.83,0,0,0,5.676-10.1,57.726,57.726,0,0,0,0-46.258,58.831,58.831,0,0,0-5.676-10.1,60.4,60.4,0,0,0-7.521-8.8,61.637,61.637,0,0,0-9.118-7.263A62.35,62.35,0,0,0,86.6,5.676,63.148,63.148,0,0,0,62.61,1m0-1c34.579,0,62.61,27.065,62.61,60.451S97.189,120.9,62.61,120.9,0,93.838,0,60.451,28.032,0,62.61,0Z" transform="translate(0 0)" fill="#fff"/>
  <g id="Group_175278" data-name="Group 175278" transform="translate(36.05 32.352)">
    <path id="Path_63588" data-name="Path 63588" d="M39.842,0H13.284A13.319,13.319,0,0,0,.005,13.279V39.838A13.32,13.32,0,0,0,13.284,53.117H39.842A13.32,13.32,0,0,0,53.121,39.838V13.279A13.319,13.319,0,0,0,39.842,0Zm8.852,39.838a8.862,8.862,0,0,1-8.852,8.852H13.284a8.864,8.864,0,0,1-8.852-8.852V13.279a8.863,8.863,0,0,1,8.852-8.852H39.842a8.861,8.861,0,0,1,8.852,8.852Z" transform="translate(-0.005 0)" fill="#fff"/>
    <circle id="Ellipse_7911" data-name="Ellipse 7911" cx="3.32" cy="3.32" r="3.32" transform="translate(37.626 8.852)" fill="#fff"/>
    <path id="Path_63589" data-name="Path 63589" d="M115.684,102.4a13.28,13.28,0,1,0,13.279,13.279A13.277,13.277,0,0,0,115.684,102.4Zm0,22.133a8.853,8.853,0,1,1,8.852-8.854A8.853,8.853,0,0,1,115.684,124.533Z" transform="translate(-89.126 -89.121)" fill="#fff"/>
  </g>
</svg>
