<svg xmlns="http://www.w3.org/2000/svg" width="150.384" height="150.384" viewBox="0 0 150.384 150.384">
  <g id="Group_176174" data-name="Group 176174" transform="translate(-615.355 -5351.186)">
    <g id="Ellipse_7939" data-name="Ellipse 7939" opacity="0.15">
      <circle id="Ellipse_7939-2" data-name="Ellipse 7939" cx="75.192" cy="75.192" r="75.192" transform="translate(615.355 5351.186)" fill="#fff"/>
      <path id="Ellipse_7939_-_Outline" data-name="Ellipse 7939 - Outline" d="M75.192,1A73.841,73.841,0,0,0,33.711,13.67,74.411,74.411,0,0,0,6.83,46.313a74.093,74.093,0,0,0,6.84,70.359,74.411,74.411,0,0,0,32.643,26.881,74.093,74.093,0,0,0,70.359-6.84,74.411,74.411,0,0,0,26.881-32.643,74.093,74.093,0,0,0-6.84-70.359A74.411,74.411,0,0,0,104.07,6.83,73.726,73.726,0,0,0,75.192,1m0-1A75.192,75.192,0,1,1,0,75.192,75.192,75.192,0,0,1,75.192,0Z" transform="translate(615.355 5351.186)" fill="#fff"/>
    </g>
    <path id="_14" data-name="14" d="M53.771,25.6A22.126,22.126,0,0,1,75.749,47.74v5.535l-.025.365a2.685,2.685,0,0,1-2.656,2.335l-.033-.068-.422-.034a2.678,2.678,0,0,1-1.479-.756,2.713,2.713,0,0,1-.786-1.91V47.74A16.809,16.809,0,0,0,53.771,31.034H21.977A16.818,16.818,0,0,0,5.394,47.74V71.634A16.813,16.813,0,0,0,21.977,88.34H53.771A16.813,16.813,0,0,0,70.354,71.634a2.712,2.712,0,0,1,5.394,0,22.126,22.126,0,0,1-21.977,22.14H21.977A22.093,22.093,0,0,1,0,71.634V47.74A22.059,22.059,0,0,1,21.977,25.6ZM16.265,46a2.632,2.632,0,0,1,1.96.592L33.971,59.15a5.4,5.4,0,0,0,6.7,0L56.251,46.6h.033l.328-.226a2.694,2.694,0,0,1,3.023,4.438L44.055,63.4a10.757,10.757,0,0,1-13.568,0L14.875,50.81l-.3-.275A2.749,2.749,0,0,1,14.466,47a2.635,2.635,0,0,1,1.8-.994Z" transform="translate(652.673 5366.695)" fill="#fff"/>
  </g>
</svg>
