<svg xmlns="http://www.w3.org/2000/svg" width="135.582" height="135.582" viewBox="0 0 135.582 135.582">
  <g id="Group_176173" data-name="Group 176173" transform="translate(-60.025 -5461.209)">
    <g id="Ellipse_7940" data-name="Ellipse 7940" opacity="0.15">
      <circle id="Ellipse_7940-2" data-name="Ellipse 7940" cx="67.791" cy="67.791" r="67.791" transform="translate(60.025 5461.209)" fill="#fff"/>
      <path id="Ellipse_7940_-_Outline" data-name="Ellipse 7940 - Outline" d="M67.791,1A66.474,66.474,0,0,0,30.448,12.406a66.989,66.989,0,0,0-24.2,29.387,66.7,66.7,0,0,0,6.158,63.341,66.989,66.989,0,0,0,29.387,24.2,66.7,66.7,0,0,0,63.341-6.158,66.989,66.989,0,0,0,24.2-29.387,66.7,66.7,0,0,0-6.158-63.341,66.989,66.989,0,0,0-29.387-24.2A66.372,66.372,0,0,0,67.791,1m0-1A67.791,67.791,0,1,1,0,67.791,67.791,67.791,0,0,1,67.791,0Z" transform="translate(60.025 5461.209)" fill="#fff"/>
    </g>
    <path id="Path_67476" data-name="Path 67476" d="M387.665,376.867l-6.786,6.786-3.826-3.826a2.959,2.959,0,0,0-4.185,4.185l5.919,5.919a2.96,2.96,0,0,0,4.185,0l8.878-8.878a2.959,2.959,0,0,0-4.185-4.185Z" transform="translate(-226.768 5170.755)" fill="#fff"/>
    <path id="Path_67477" data-name="Path 67477" d="M37.882,0A37.479,37.479,0,0,0,0,37.881,37.479,37.479,0,0,0,37.882,75.763a38.275,38.275,0,0,0,14.363-2.771A2.959,2.959,0,1,0,50.034,67.5a32.383,32.383,0,0,1-12.152,2.343A31.622,31.622,0,0,1,5.919,37.881,31.623,31.623,0,0,1,37.882,5.919,31.623,31.623,0,0,1,69.844,37.881a32.74,32.74,0,0,1-.827,7.328,2.96,2.96,0,1,0,5.768,1.327,38.678,38.678,0,0,0,.978-8.655A37.479,37.479,0,0,0,37.882,0Z" transform="translate(90.186 5491.116)" fill="#fff"/>
    <path id="Path_67478" data-name="Path 67478" d="M252.89,184.728a2.959,2.959,0,0,0,0-4.185l-10.971-10.971V158.96a2.96,2.96,0,0,0-5.919,0V170.8a2.959,2.959,0,0,0,.867,2.093L248.7,184.728A2.959,2.959,0,0,0,252.89,184.728Z" transform="translate(-110.893 5358.2)" fill="#fff"/>
  </g>
</svg>
