<svg id="Group_175283" data-name="Group 175283" xmlns="http://www.w3.org/2000/svg" width="120.903" height="120.903" viewBox="0 0 120.903 120.903">
  <path id="Ellipse_7909" data-name="Ellipse 7909" d="M60.451,1A59.169,59.169,0,0,0,27.212,11.153,59.628,59.628,0,0,0,5.672,37.311a59.372,59.372,0,0,0,5.481,56.38,59.628,59.628,0,0,0,26.158,21.541,59.372,59.372,0,0,0,56.38-5.481,59.628,59.628,0,0,0,21.541-26.158,59.372,59.372,0,0,0-5.481-56.38A59.628,59.628,0,0,0,83.592,5.672,59.078,59.078,0,0,0,60.451,1m0-1A60.451,60.451,0,1,1,0,60.451,60.451,60.451,0,0,1,60.451,0Z" transform="translate(0 0)" fill="#fff"/>
  <g id="Group_175279" data-name="Group 175279" transform="translate(36.784 34.453)">
    <path id="Path_63590" data-name="Path 63590" d="M42.724,21.478,61.2,0H56.822L40.778,18.649,27.964,0H13.185L32.562,28.2,13.185,50.724h4.379L34.506,31.03,48.039,50.724H62.818l-20.1-29.246Zm-6,6.971-1.963-2.808L19.141,3.3h6.725L38.474,21.329l1.963,2.808,16.387,23.44H50.1L36.726,28.45Z" transform="translate(-13.185)" fill="#fff"/>
  </g>
</svg>
