<svg id="Group_175286" data-name="Group 175286" xmlns="http://www.w3.org/2000/svg" width="120.903" height="120.903" viewBox="0 0 120.903 120.903">
  <path id="Ellipse_7906" data-name="Ellipse 7906" d="M60.451,1A59.169,59.169,0,0,0,27.212,11.153,59.628,59.628,0,0,0,5.672,37.311a59.372,59.372,0,0,0,5.481,56.38,59.628,59.628,0,0,0,26.158,21.541,59.372,59.372,0,0,0,56.38-5.481,59.628,59.628,0,0,0,21.541-26.158,59.372,59.372,0,0,0-5.481-56.38A59.628,59.628,0,0,0,83.592,5.672,59.078,59.078,0,0,0,60.451,1m0-1A60.451,60.451,0,1,1,0,60.451,60.451,60.451,0,0,1,60.451,0Z" transform="translate(0 0)" fill="#fff"/>
  <g id="_2253" data-name="2253" transform="translate(31.124 30.225)">
    <path id="Path_63417" data-name="Path 63417" d="M33.541,25.369l-.022.179c-5.257-2.62-5.807-2.969-6.486-1.951-.471.705-1.843,2.3-2.257,2.778s-.834.5-1.544.179A19.4,19.4,0,0,1,17.488,23a21.688,21.688,0,0,1-3.968-4.949c-.7-1.21.765-1.382,2.1-3.906a1.314,1.314,0,0,0-.06-1.253c-.179-.359-1.606-3.873-2.2-5.274-.574-1.4-1.164-1.219-1.606-1.219-1.377-.12-2.383-.1-3.27.822-3.858,4.241-2.885,8.616.416,13.268,6.488,8.491,9.945,10.055,16.266,12.225a9.89,9.89,0,0,0,4.494.289c1.372-.218,4.224-1.724,4.819-3.409a5.917,5.917,0,0,0,.43-3.407C34.727,25.871,34.258,25.691,33.541,25.369Z" transform="translate(8.311 8.835)" fill="#fff"/>
    <path id="Path_63418" data-name="Path 63418" d="M49.055,8.246C30.674-9.523.253,3.364.241,28.432A28.3,28.3,0,0,0,4.054,42.644L0,57.375l15.144-3.949c18.9,10.208,42.22-3.347,42.23-24.979A28.2,28.2,0,0,0,49.019,8.339ZM52.6,28.367C52.583,46.615,32.553,58.01,16.71,48.7l-.861-.512L6.885,50.516l2.4-8.714-.571-.9C-1.143,25.212,10.184,4.7,28.859,4.7A23.747,23.747,0,0,1,52.6,28.367Z" transform="translate(0 0)" fill="#fff"/>
  </g>
</svg>
