<svg width="40" height="37" viewBox="0 0 40 37" fill="none" xmlns="http://www.w3.org/2000/svg">
<path d="M21.25 4.625C21.25 3.98643 20.6903 3.46875 20 3.46875C19.3097 3.46875 18.75 3.98643 18.75 4.625H21.25ZM18.75 6.17397C18.75 6.81255 19.3097 7.33022 20 7.33022C20.6903 7.33022 21.25 6.81255 21.25 6.17397H18.75ZM15.0152 27.6011L15.1548 26.4521L13.6593 26.2965L13.7685 27.6849L15.0152 27.6011ZM24.9848 27.6011L26.2315 27.6849L26.3407 26.2965L24.8452 26.4521L24.9848 27.6011ZM11.2528 13.611C12.0654 10.8369 14.3675 8.61661 17.316 7.73251L16.5452 5.53269C12.7992 6.6559 9.87498 9.47225 8.83983 13.0062L11.2528 13.611ZM11.1781 13.866L11.2528 13.611L8.83983 13.0062L8.76512 13.2613L11.1781 13.866ZM10.8813 19.6422C10.5255 17.7198 10.6268 15.7481 11.1781 13.866L8.76512 13.2613C8.1188 15.4677 8.00007 17.7788 8.4172 20.0324L10.8813 19.6422ZM10.9188 19.8448L10.8813 19.6422L8.4172 20.0324L8.4547 20.2351L10.9188 19.8448ZM8.75 23.5265C8.75 22.652 9.27308 21.8921 10.0452 21.5026L8.848 19.4725C7.30123 20.2529 6.25 21.7762 6.25 23.5265H8.75ZM10.7289 25.7802C9.58155 25.5639 8.75 24.6243 8.75 23.5265H6.25C6.25 25.7161 7.91027 27.6089 10.2298 28.0462L10.7289 25.7802ZM11.3415 25.8955L10.7289 25.7802L10.2298 28.0462L10.8424 28.1616L11.3415 25.8955ZM28.6585 25.8955C22.9443 26.9724 17.0557 26.9724 11.3415 25.8955L10.8424 28.1616C16.886 29.3005 23.114 29.3005 29.1575 28.1616L28.6585 25.8955ZM29.2712 25.7802L28.6585 25.8955L29.1575 28.1616L29.7702 28.0462L29.2712 25.7802ZM31.25 23.5265C31.25 24.6243 30.4185 25.5639 29.2712 25.7802L29.7702 28.0462C32.0897 27.6089 33.75 25.7161 33.75 23.5265H31.25ZM29.978 21.5144C30.7375 21.9075 31.25 22.6608 31.25 23.5265H33.75C33.75 21.7938 32.7198 20.2837 31.1987 19.4964L29.978 21.5144ZM29.1282 19.591L29.0883 19.8059L31.5525 20.1963L31.5923 19.9812L29.1282 19.591ZM28.8605 13.9005C29.3872 15.7575 29.4785 17.6982 29.1282 19.591L31.5923 19.9812C32.0028 17.7635 31.8958 15.4897 31.2787 13.3137L28.8605 13.9005ZM28.7565 13.5338L28.8605 13.9005L31.2787 13.3137L31.1745 12.9469L28.7565 13.5338ZM22.8865 7.74C25.7703 8.621 27.9812 10.8005 28.7565 13.5338L31.1745 12.9469C30.1855 9.45957 27.3623 6.67201 23.6705 5.54416L22.8865 7.74ZM17.316 7.73251C19.1233 7.19061 21.088 7.1906 22.8865 7.74L23.6705 5.54416C21.3618 4.83886 18.8523 4.84089 16.5452 5.53269L17.316 7.73251ZM31.1987 19.4964C31.4377 19.62 31.61 19.8857 31.5525 20.1963L29.0883 19.8059C28.9558 20.5217 29.3527 21.1907 29.978 21.5144L31.1987 19.4964ZM8.4547 20.2351C8.39298 19.9017 8.57853 19.6085 8.848 19.4725L10.0452 21.5026C10.6611 21.1918 11.0474 20.5393 10.9188 19.8448L8.4547 20.2351ZM18.75 4.625V6.17397H21.25V4.625H18.75ZM14.8755 28.7501C18.2812 29.1042 21.7188 29.1042 25.1245 28.7501L24.8452 26.4521C21.6252 26.7869 18.3748 26.7869 15.1548 26.4521L14.8755 28.7501ZM26.0475 28.7618C26.1415 28.408 26.203 28.0479 26.2315 27.6849L23.7382 27.5172C23.7198 27.7505 23.6802 27.9822 23.6197 28.2096L26.0475 28.7618ZM25.9108 29.2756L26.0475 28.7618L23.6197 28.2096L23.4832 28.7236L25.9108 29.2756ZM21.464 33.3715C23.6575 32.8861 25.3717 31.3039 25.9108 29.2756L23.4832 28.7236C23.1662 29.9156 22.1608 30.8395 20.8823 31.1224L21.464 33.3715ZM18.536 33.3715C19.4985 33.5844 20.5015 33.5844 21.464 33.3715L20.8823 31.1224C20.3022 31.2508 19.6978 31.2508 19.1177 31.1224L18.536 33.3715ZM14.0892 29.2756C14.6283 31.3039 16.3425 32.8861 18.536 33.3715L19.1177 31.1224C17.8392 30.8395 16.8338 29.9156 16.5169 28.7236L14.0892 29.2756ZM13.9526 28.7618L14.0892 29.2756L16.5169 28.7236L16.3803 28.2096L13.9526 28.7618ZM13.7685 27.6849C13.797 28.0479 13.8585 28.408 13.9526 28.7618L16.3803 28.2096C16.3198 27.9822 16.2802 27.7505 16.2619 27.5172L13.7685 27.6849Z" fill="#B4B4B4"/>
</svg>
