<svg id="_36658567_8425733" data-name="36658567_8425733" xmlns="http://www.w3.org/2000/svg" xmlns:xlink="http://www.w3.org/1999/xlink" width="607" height="449.723" viewBox="0 0 607 449.723">
  <defs>
    <linearGradient id="linear-gradient" x1="-15.955" y1="23.014" x2="-15.49" y2="24.935" gradientUnits="objectBoundingBox">
      <stop offset="0" stop-color="#3e2177"/>
      <stop offset="0.31" stop-color="#5f52a0"/>
      <stop offset="1" stop-color="#2c155d"/>
    </linearGradient>
    <linearGradient id="linear-gradient-2" x1="-17.224" y1="24.767" x2="-16.627" y2="28.104" xlink:href="#linear-gradient"/>
    <linearGradient id="linear-gradient-3" x1="0.778" y1="1.23" x2="0.291" y2="-0.049" gradientUnits="objectBoundingBox">
      <stop offset="0" stop-color="#dc6e04"/>
      <stop offset="0.306" stop-color="#ffbb54"/>
      <stop offset="1" stop-color="#c35400"/>
    </linearGradient>
    <linearGradient id="linear-gradient-4" x1="0.473" y1="-0.267" x2="0.54" y2="1.945" xlink:href="#linear-gradient-3"/>
    <linearGradient id="linear-gradient-5" x1="0.522" y1="1.352" x2="0.477" y2="-0.63" xlink:href="#linear-gradient-3"/>
    <linearGradient id="linear-gradient-6" x1="-10.07" y1="-43.226" x2="-9.605" y2="-41.305" xlink:href="#linear-gradient"/>
    <linearGradient id="linear-gradient-7" x1="-10.953" y1="-49.668" x2="-10.356" y2="-46.331" xlink:href="#linear-gradient"/>
    <linearGradient id="linear-gradient-8" x1="0.879" y1="0.11" x2="0.151" y2="0.859" xlink:href="#linear-gradient-3"/>
    <linearGradient id="linear-gradient-9" x1="6.328" y1="-2.088" x2="7.071" y2="-1.322" xlink:href="#linear-gradient-3"/>
    <linearGradient id="linear-gradient-10" x1="0.862" y1="0.138" x2="0.189" y2="0.811" xlink:href="#linear-gradient-3"/>
  </defs>
  <g id="OBJECTS" transform="translate(153.934 0)">
    <g id="Group_176072" data-name="Group 176072">
      <g id="Group_176068" data-name="Group 176068" transform="translate(101.423)">
        <path id="Path_67479" data-name="Path 67479" d="M222.772,104.163c-.546.232-1.085.477-1.621.738-.987.483-1.837.942-2.6,1.4q-.837.5-1.637,1.054c-.759.52-1.54,1.117-2.39,1.819-.725.6-1.43,1.217-2.1,1.872a33.314,33.314,0,0,0-3.781,4.411,3.6,3.6,0,0,0,2.928,5.7h24.073l7.939,13.72-7.94,13.74H211.578a3.6,3.6,0,0,0-2.926,5.7,33.3,33.3,0,0,0,56.505-3.836h87.389l18.08-31.184H265.158a33.331,33.331,0,0,0-37.539-16.762A32.8,32.8,0,0,0,222.772,104.163Z" transform="translate(-207.977 -101.537)" fill="url(#linear-gradient)"/>
        <path id="Path_67480" data-name="Path 67480" d="M349.166,145.4H263.724a3.672,3.672,0,0,0-3.244,1.952,29.634,29.634,0,0,1-50.2,3.529h23.932a3.671,3.671,0,0,0,3.179-1.835l7.939-13.74a3.672,3.672,0,0,0,0-3.675l-7.939-13.72a3.672,3.672,0,0,0-3.178-1.834H210.283a29.837,29.837,0,0,1,3.284-3.813c.535-.524,1.143-1.067,1.864-1.663.765-.634,1.459-1.164,2.13-1.626.47-.321.955-.635,1.451-.932.668-.405,1.422-.811,2.318-1.25q.705-.343,1.436-.653A29.6,29.6,0,0,1,260.481,119.6a3.671,3.671,0,0,0,3.244,1.952h98.718Z" transform="translate(-206.545 -100.133)" fill="url(#linear-gradient-2)"/>
      </g>
      <g id="Group_176069" data-name="Group 176069" transform="translate(0 17.622)">
        <path id="Path_67481" data-name="Path 67481" d="M409.48,112.41,391.4,143.715l56.952,98.65L391.4,341,409.48,372.32l75.029-129.955Zm-189.031,0L145.42,242.365,220.449,372.32,238.525,341l-56.953-98.633,56.953-98.65Z" transform="translate(-145.414 -112.405)" fill="url(#linear-gradient-3)"/>
        <path id="Path_67482" data-name="Path 67482" d="M181.573,242.363H145.416l75.03-129.956,18.078,31.313Z" transform="translate(-145.416 -112.407)" fill="url(#linear-gradient-4)"/>
        <path id="Path_67483" data-name="Path 67483" d="M354.1,192.568h36.159l-75.03,129.955-18.08-31.313Z" transform="translate(-51.159 -62.612)" fill="url(#linear-gradient-5)"/>
      </g>
      <g id="Group_176070" data-name="Group 176070" transform="translate(75.029 228.617)">
        <path id="Path_67484" data-name="Path 67484" d="M339.55,306.6c.547-.232,1.085-.477,1.621-.738.987-.483,1.837-.942,2.594-1.4q.836-.5,1.637-1.054c.759-.52,1.54-1.117,2.39-1.819.725-.6,1.43-1.217,2.1-1.873a33.41,33.41,0,0,0,3.781-4.411,3.6,3.6,0,0,0-2.928-5.7H326.67l-7.939-13.72,7.941-13.74h24.071a3.6,3.6,0,0,0,2.926-5.7,33.3,33.3,0,0,0-56.505,3.836H209.776L191.7,291.471H297.163A33.331,33.331,0,0,0,334.7,308.233,32.95,32.95,0,0,0,339.55,306.6Z" transform="translate(-191.696 -242.555)" fill="url(#linear-gradient-6)"/>
        <path id="Path_67485" data-name="Path 67485" d="M209.137,262.553h85.442a3.673,3.673,0,0,0,3.244-1.952,29.634,29.634,0,0,1,50.2-3.529H324.088a3.671,3.671,0,0,0-3.179,1.835l-7.939,13.74a3.668,3.668,0,0,0,0,3.675l7.939,13.72a3.67,3.67,0,0,0,3.178,1.832h23.934a29.855,29.855,0,0,1-3.285,3.813c-.533.524-1.143,1.067-1.864,1.664-.765.634-1.459,1.164-2.13,1.626-.47.321-.955.636-1.451.932-.668.406-1.422.811-2.318,1.25q-.705.343-1.436.653a29.6,29.6,0,0,1-37.714-13.464,3.671,3.671,0,0,0-3.244-1.952H195.861Z" transform="translate(-189.109 -241.148)" fill="url(#linear-gradient-7)"/>
      </g>
      <g id="Group_176071" data-name="Group 176071" transform="translate(87.447 67.804)">
        <path id="Path_67486" data-name="Path 67486" d="M349.945,259.731l-6.248-5.64a3.915,3.915,0,0,1-.965-4.455c.869-2.017,1.6-3.935,2.224-5.869s1.161-3.891,1.642-6.024a3.916,3.916,0,0,1,3.4-3.036l8.386-.9a5.649,5.649,0,0,0,5.019-5.267c.086-1.308.141-2.617.165-3.915l0-1.671c0-1.766-.066-3.541-.187-5.316a5.6,5.6,0,0,0-5.017-5.149l-8.353-.887a4.031,4.031,0,0,1-.794-.17,3.906,3.906,0,0,1-2.6-2.858,67.2,67.2,0,0,0-3.886-11.922,3.892,3.892,0,0,1,.973-4.429l6.246-5.651a5.6,5.6,0,0,0,1.025-7.119,81.969,81.969,0,0,0-6.47-8.905,5.6,5.6,0,0,0-7.093-1.224l-7.263,4.181a3.909,3.909,0,0,1-4.533-.456,66.477,66.477,0,0,0-10.154-7.365,3.894,3.894,0,0,1-1.817-4.155l1.731-8.234a5.6,5.6,0,0,0-3.354-6.362q-2.575-1.034-5.186-1.884t-5.282-1.521a5.6,5.6,0,0,0-6.456,3.181l-3.424,7.668a3.89,3.89,0,0,1-3.914,2.3,66.451,66.451,0,0,0-12.545-.015,3.907,3.907,0,0,1-3.933-2.291l-3.434-7.665a5.6,5.6,0,0,0-6.454-3.174,82.494,82.494,0,0,0-10.47,3.4,5.6,5.6,0,0,0-3.354,6.368l1.738,8.224a3.89,3.89,0,0,1-1.817,4.16,67.124,67.124,0,0,0-10.155,7.357,3.9,3.9,0,0,1-4.523.454l-7.3-4.191a5.6,5.6,0,0,0-7.077,1.217q-1.683,2.014-3.223,4.118l-1,1.378q-1.141,1.629-2.2,3.312a5.65,5.65,0,0,0,.968,7.218l6.248,5.639a3.913,3.913,0,0,1,.966,4.455c-.858,1.989-1.6,3.962-2.224,5.869s-1.161,3.891-1.642,6.023a3.92,3.92,0,0,1-3.4,3.038l-8.388.9a5.65,5.65,0,0,0-5.019,5.266q-.129,1.943-.164,3.879v1.809q.007,2.6.185,5.217a5.6,5.6,0,0,0,5.018,5.147l8.351.887a4.023,4.023,0,0,1,.794.17,3.906,3.906,0,0,1,2.6,2.858,67.208,67.208,0,0,0,3.888,11.927,3.893,3.893,0,0,1-.973,4.429l-6.246,5.651a5.6,5.6,0,0,0-1.025,7.117,82.173,82.173,0,0,0,6.47,8.905,5.6,5.6,0,0,0,7.093,1.222l7.263-4.181a3.909,3.909,0,0,1,4.533.456,66.49,66.49,0,0,0,10.15,7.363,3.894,3.894,0,0,1,1.817,4.155l-1.73,8.234a5.6,5.6,0,0,0,3.354,6.36q2.573,1.034,5.186,1.882c1.733.564,3.5,1.07,5.284,1.521a5.6,5.6,0,0,0,6.456-3.181l3.424-7.667a3.889,3.889,0,0,1,3.914-2.3,66.437,66.437,0,0,0,12.543.015,3.907,3.907,0,0,1,3.933,2.291l3.434,7.663a5.6,5.6,0,0,0,6.454,3.174,82.159,82.159,0,0,0,10.47-3.4,5.6,5.6,0,0,0,3.354-6.368l-1.738-8.223a3.89,3.89,0,0,1,1.817-4.16,67.216,67.216,0,0,0,10.155-7.355,3.9,3.9,0,0,1,4.522-.454l7.3,4.191a5.6,5.6,0,0,0,7.078-1.217q1.688-2.021,3.234-4.132l.989-1.357q1.143-1.632,2.2-3.317A5.653,5.653,0,0,0,349.945,259.731Zm-78.128-6.921a31.2,31.2,0,1,1,39.317-20.033A31.2,31.2,0,0,1,271.817,252.81Z" transform="translate(-199.356 -143.36)" fill="url(#linear-gradient-8)"/>
        <path id="Path_67487" data-name="Path 67487" d="M298.96,298.469a2.414,2.414,0,0,1-2.187-1.443l-3.432-7.663a7.12,7.12,0,0,0-6.491-4.207c-.224,0-.448.011-.673.031-1.928.182-3.9.276-5.87.276-2.015,0-4.056-.1-6.067-.29-.224-.021-.447-.031-.669-.031a7.107,7.107,0,0,0-6.477,4.214l-3.426,7.667a2.411,2.411,0,0,1-2.187,1.446,2.294,2.294,0,0,1-.554-.068c-1.71-.431-3.417-.921-5.078-1.461s-3.346-1.151-4.98-1.808a2.386,2.386,0,0,1-1.41-2.725l1.73-8.234a7.1,7.1,0,0,0-3.327-7.578,63.258,63.258,0,0,1-9.659-7.007,7.111,7.111,0,0,0-8.255-.828l-7.265,4.183a2.472,2.472,0,0,1-1.227.329,2.331,2.331,0,0,1-1.8-.827,79.109,79.109,0,0,1-6.219-8.557,2.381,2.381,0,0,1,.462-3.032l6.246-5.65a7.1,7.1,0,0,0,1.764-8.085,63.928,63.928,0,0,1-3.7-11.356,7.1,7.1,0,0,0-6.18-5.512l-8.359-.89a2.4,2.4,0,0,1-2.155-2.172c-.113-1.665-.174-3.351-.178-5.008v-1.8c.023-1.18.075-2.425.157-3.669a2.446,2.446,0,0,1,2.163-2.289l8.386-.9A7.117,7.117,0,0,0,218.221,208c.459-2.031.97-3.91,1.563-5.737.587-1.806,1.3-3.688,2.12-5.591a7.115,7.115,0,0,0-1.762-8.1l-6.248-5.638a2.442,2.442,0,0,1-.4-3.126q1.019-1.62,2.116-3.182l.969-1.331c.971-1.326,2.012-2.657,3.09-3.948a2.325,2.325,0,0,1,1.793-.819,2.469,2.469,0,0,1,1.226.327l7.3,4.191a7,7,0,0,0,1.355.6,7.108,7.108,0,0,0,6.882-1.425,63.935,63.935,0,0,1,9.669-7.005,7.089,7.089,0,0,0,3.324-7.586l-1.738-8.224a2.41,2.41,0,0,1,1.407-2.725,79.181,79.181,0,0,1,10.061-3.267,2.226,2.226,0,0,1,.555-.068,2.41,2.41,0,0,1,2.185,1.443l3.434,7.665a7.111,7.111,0,0,0,6.493,4.205c.224,0,.447-.011.671-.031,1.929-.183,3.905-.276,5.87-.276,2.015,0,4.056.1,6.067.29.225.021.449.031.673.031a7.107,7.107,0,0,0,6.475-4.21l3.426-7.671a2.413,2.413,0,0,1,2.188-1.446,2.282,2.282,0,0,1,.553.068c1.709.431,3.416.921,5.077,1.461s3.327,1.146,4.982,1.811A2.381,2.381,0,0,1,311,151.4l-1.732,8.237a7.093,7.093,0,0,0,3.324,7.576,63.076,63.076,0,0,1,9.664,7.01,7.078,7.078,0,0,0,2.506,1.43,7.116,7.116,0,0,0,5.749-.6l7.265-4.181a2.466,2.466,0,0,1,1.226-.329,2.334,2.334,0,0,1,1.8.827,79.2,79.2,0,0,1,6.216,8.558,2.406,2.406,0,0,1-.459,3.028l-6.248,5.653a7.1,7.1,0,0,0-1.765,8.082,63.85,63.85,0,0,1,3.7,11.353,7.138,7.138,0,0,0,4.74,5.206,7.028,7.028,0,0,0,1.441.306l8.357.89a2.379,2.379,0,0,1,2.158,2.176c.117,1.7.175,3.421.178,5.1v1.665c-.023,1.192-.075,2.448-.159,3.7a2.442,2.442,0,0,1-2.159,2.289l-8.388.9a7.115,7.115,0,0,0-6.182,5.523c-.46,2.035-.973,3.914-1.564,5.737-.6,1.84-1.292,3.669-2.119,5.588a7.12,7.12,0,0,0,1.762,8.106l6.248,5.642a2.442,2.442,0,0,1,.4,3.126q-1.019,1.617-2.119,3.187l-.955,1.311c-.974,1.331-2.02,2.667-3.1,3.962a2.327,2.327,0,0,1-1.795.82h0a2.491,2.491,0,0,1-1.227-.328l-7.3-4.191a6.972,6.972,0,0,0-1.332-.593,7.122,7.122,0,0,0-6.9,1.42,64.126,64.126,0,0,1-9.669,7,7.1,7.1,0,0,0-3.325,7.586l1.739,8.224a2.378,2.378,0,0,1-1.409,2.725,79.108,79.108,0,0,1-10.061,3.267A2.418,2.418,0,0,1,298.96,298.469ZM280.225,187.486a34.439,34.439,0,1,0,10.64,1.694A34.326,34.326,0,0,0,280.225,187.486Z" transform="translate(-198.128 -142.13)" fill="url(#linear-gradient-9)"/>
        <path id="Path_67488" data-name="Path 67488" d="M268.65,162.543a48.675,48.675,0,1,0,48.675,48.675A48.674,48.674,0,0,0,268.65,162.543Zm0,79.878a31.2,31.2,0,1,1,31.2-31.2A31.2,31.2,0,0,1,268.65,242.421Z" transform="translate(-186.548 -131.445)" fill="url(#linear-gradient-10)"/>
      </g>
    </g>
  </g>
  <g id="TEXTS" transform="translate(0 278.999)">
    <text id="MECHANICAL" transform="translate(0 107)" fill="#2c0070" font-size="99" font-family="Segoe UI"><tspan x="0" y="0">MECHANICAL</tspan></text>
    <text id="SERVICE_REPAIR" data-name="SERVICE &amp; REPAIR" transform="translate(205.794 165.724)" fill="#9193a8" font-size="21" font-family="Montserrat" font-weight="500"><tspan x="0" y="0">SERVICE &amp; REPAIR</tspan></text>
  </g>
</svg>
