<svg id="Group_176087" data-name="Group 176087" xmlns="http://www.w3.org/2000/svg" width="434.707" height="497.204" viewBox="0 0 434.707 497.204">
  <g id="Group_176075" data-name="Group 176075" transform="translate(88.678 0)">
    <g id="Group_176073" data-name="Group 176073" transform="translate(23.335)">
      <path id="Path_67489" data-name="Path 67489" d="M291.617,51.06v96.151a8.156,8.156,0,0,1-4.507,7.293l-31.3,15.649a3.463,3.463,0,0,0,0,6.2l17.712,8.856a8.156,8.156,0,0,1,4.507,7.293v28.86a3.463,3.463,0,0,0,5.013,3.1l57.777-28.887a16.3,16.3,0,0,0,9.014-14.585V79a8.151,8.151,0,0,0-3.63-6.784L304.3,44.279A8.154,8.154,0,0,0,291.617,51.06Z" transform="translate(-131.155 -42.895)" fill="#26284a"/>
      <path id="Path_67490" data-name="Path 67490" d="M271.834,51.06v96.151a8.156,8.156,0,0,0,4.507,7.293l31.3,15.649a3.463,3.463,0,0,1,0,6.2L289.93,185.2a8.156,8.156,0,0,0-4.507,7.293v28.86a3.463,3.463,0,0,1-5.013,3.1l-57.777-28.887a16.3,16.3,0,0,1-9.014-14.585V79a8.151,8.151,0,0,1,3.629-6.784l41.906-27.936A8.154,8.154,0,0,1,271.834,51.06Z" transform="translate(-213.618 -42.895)" fill="#26284a"/>
    </g>
    <g id="Group_176074" data-name="Group 176074" transform="translate(0 166.551)">
      <path id="Path_67491" data-name="Path 67491" d="M473.222,155.157V127.666a8.154,8.154,0,0,0-6.534-7.991l-24.511-4.967a103.8,103.8,0,0,0-4.681-13.863,5.205,5.205,0,0,0-7.131-2.551l-21.92,10.959a5.256,5.256,0,0,0-2.456,6.674,70.74,70.74,0,0,1,3.279,40.065,71.179,71.179,0,0,1-140.848-14.585,70.419,70.419,0,0,1,4.852-25.672,5.23,5.23,0,0,0-2.441-6.662L248.894,98.105a5.209,5.209,0,0,0-7.131,2.542A104.405,104.405,0,0,0,237,114.7l-24.508,4.967a8.156,8.156,0,0,0-6.534,7.99v27.491a8.154,8.154,0,0,0,6.534,7.991L237,168.109a105.239,105.239,0,0,0,11.16,26.964l-13.814,20.836a8.153,8.153,0,0,0,1.03,10.27l19.44,19.44a8.153,8.153,0,0,0,10.27,1.03l20.836-13.814a105.347,105.347,0,0,0,26.964,11.16l4.967,24.508a8.154,8.154,0,0,0,7.99,6.534h27.491a8.154,8.154,0,0,0,7.991-6.534l4.967-24.508a105.348,105.348,0,0,0,26.964-11.16l20.836,13.814a8.154,8.154,0,0,0,10.27-1.03l19.44-19.44a8.153,8.153,0,0,0,1.03-10.27L431.02,195.073a105.344,105.344,0,0,0,11.16-26.964l24.511-4.967A8.137,8.137,0,0,0,473.222,155.157Z" transform="translate(-205.961 -97.547)" fill="#26284a"/>
    </g>
    <path id="Path_67492" data-name="Path 67492" d="M269.366,221.671a61.722,61.722,0,0,0,23.913-4.8,8.309,8.309,0,0,0,5.193-7.628V106.531a8.156,8.156,0,0,0-4.507-7.293L273.01,88.761a8.146,8.146,0,0,0-7.293,0L244.766,99.238a8.156,8.156,0,0,0-4.507,7.293V209.249a8.317,8.317,0,0,0,5.193,7.628A61.779,61.779,0,0,0,269.366,221.671Z" transform="translate(-135.737 49.251)" fill="#f3b742"/>
  </g>
  <g id="Group_176086" data-name="Group 176086" transform="translate(0 135.559)">
    <g id="Group_176083" data-name="Group 176083" transform="translate(0 0)">
      <g id="Group_176082" data-name="Group 176082">
        <text id="ESTB" transform="translate(0 32)" fill="#26284a" font-size="30" font-family="Open Sans" font-weight="700"><tspan x="0" y="0">ESTB</tspan></text>
      </g>
    </g>
    <g id="Group_176085" data-name="Group 176085" transform="translate(365.707 0)">
      <g id="Group_176084" data-name="Group 176084">
        <text id="_1997" data-name="1997" transform="translate(0 32)" fill="#26284a" font-size="30" font-family="Open Sans" font-weight="700"><tspan x="0" y="0">1997</tspan></text>
      </g>
    </g>
  </g>
  <text id="Mechanical" transform="translate(49.47 421.048)" fill="#26284a" font-size="55" font-family="Open Sans" font-weight="800"><tspan x="0" y="0">Mechanical</tspan></text>
  <text id="Engineering" transform="translate(42.76 481.204)" fill="#26284a" font-size="55" font-family="Open Sans" font-weight="800"><tspan x="0" y="0">Engineering</tspan></text>
</svg>
