<svg id="_149852713_12d5f6ac-48fa-436a-b068-1b5efa949619" data-name="149852713_12d5f6ac-48fa-436a-b068-1b5efa949619" xmlns="http://www.w3.org/2000/svg" width="437.568" height="481.093" viewBox="0 0 437.568 481.093">
  <path id="Path_67502" data-name="Path 67502" d="M714.306,1191.1a18.5,18.5,0,0,1,8.192,5.414,17.244,17.244,0,0,1,4.075,11.652,19.722,19.722,0,0,1-5.23,13.507c-5.035,5.641-13.719,6.8-20.857,6.8H669.018v-71.6H697.1a40.236,40.236,0,0,1,12.511,1.743,18.423,18.423,0,0,1,8.151,4.867,18.9,18.9,0,0,1,4.927,12.8c0,5.1-1.5,9.77-5.668,12.936a19.42,19.42,0,0,1-2.647,1.841.306.306,0,0,1-.067.033Zm88.039,11.944,18.007,25.436H798.808l-15.441-22.215h-9.259v22.215H756.6v-71.6h27.383c7.521,0,17.633.833,23.772,5.691,5.654,4.474,7.3,11.495,7.3,18.4,0,9.96-3.471,18.13-12.707,22.069Zm89.09,10.392H863.543l-6.475,15.042h-18.68l30.935-71.6h16.335l30.935,71.6H897.911l-6.477-15.042Zm67.2-26.652v41.695H941.13v-71.6h16.015l32.7,42.9v-42.9h17.509v71.6H990.338l-31.7-41.695Zm108.411-29.9c10.438,0,21.321,2.114,29.254,9.373,7.5,6.862,10.282,16.092,10.282,26.078,0,10.009-2.725,19.307-10.01,26.406-7.945,7.741-19.647,9.743-30.323,9.743H1041.46v-71.6Zm-380.523,28.185h6.387c2.773,0,6.643-.167,9.213-1.309,2.068-.919,2.553-3.037,2.553-5.127,0-2-.41-4.245-2.356-5.251-2.4-1.241-6.665-1.385-9.311-1.385h-6.486v13.072Zm0,28.291H696.2c2.935,0,6.9-.223,9.577-1.542,2.2-1.085,2.787-3.286,2.787-5.593,0-2.362-.656-4.472-2.945-5.473-2.981-1.3-7.7-1.462-10.913-1.462h-8.18v14.069Zm87.582-41.161v18.651H784.48c2.936,0,7.879-.257,10.2-2.338,2.07-1.856,2.561-4.84,2.561-7.485,0-2.424-.421-5.411-2.568-6.914-2.423-1.7-7.05-1.914-9.9-1.914Zm103.427,8.871-7.26,16.75h14.44l-7.18-16.75Zm181.43-8.673v40.368h8.878c5.623,0,11.485-1.143,15.713-5.113,4.149-3.9,5.417-9.4,5.417-14.922,0-5.578-1.3-11.1-5.427-15.08-4.388-4.235-11.048-5.253-16.9-5.253h-7.682Z" transform="translate(-669.018 -812.631)" fill="#1c2773" fill-rule="evenodd"/>
  <path id="Path_67503" data-name="Path 67503" d="M772.749,1324.917v23.325H766.3v-23.325h-8.189v-5.584h22.83v5.584Zm54.787,23.326L824.848,1342H812.73l-2.687,6.244h-6.866l12.49-28.909h6.246l12.49,28.909Zm-8.728-20.306-3.64,8.395h7.237l-3.6-8.395Zm61.115,5.579h6.493v10.257q-4.3,4.8-11.911,4.8a14.712,14.712,0,0,1-10.691-4.218,15.28,15.28,0,0,1,.083-21.383,14.659,14.659,0,0,1,10.629-4.3,15.719,15.719,0,0,1,10.815,4.094l-3.35,4.838a12.778,12.778,0,0,0-3.578-2.336,9.6,9.6,0,0,0-3.536-.641,8.466,8.466,0,0,0-6.2,2.5,9.984,9.984,0,0,0-.1,13.152,7.812,7.812,0,0,0,5.77,2.461,11.081,11.081,0,0,0,5.583-1.281v-7.941Zm35.639,14.726v-28.909h6.451V1342.5h12.325v5.748H915.563Zm46.889-28.912H968.9v28.909h-6.452v-28.909Zm57.184,0h6.452v28.909h-6.452l-13.772-18.114v18.114h-6.452v-28.909h6.038l14.186,18.611v-18.611Zm57.8,0v5.749h-14.393v5.955h12.945v5.5h-12.945v6H1077.9v5.708h-21.3v-28.909Z" transform="translate(-699.219 -867.478)" fill="#1c2773" fill-rule="evenodd"/>
  <path id="Path_67504" data-name="Path 67504" d="M918.691,658.319,929.649,637.9a3.115,3.115,0,0,1,3.363-1.763,159.026,159.026,0,0,1,26.765,7.161,3.116,3.116,0,0,1,2.046,3.008l-.729,23.389,23.535,13.589,19.847-12.3a3.119,3.119,0,0,1,3.627.268,159.825,159.825,0,0,1,19.486,19.467,3.106,3.106,0,0,1,.379,3.757l-12.3,19.847,13.589,23.535,23.274-.724a3.11,3.11,0,0,1,3.123,2.041,158.732,158.732,0,0,1,7.16,26.764,3.132,3.132,0,0,1-1.6,3.274l-20.591,11.047v27.177l20.424,10.958a3.117,3.117,0,0,1,1.763,3.363,158.958,158.958,0,0,1-7.16,26.765,3.116,3.116,0,0,1-3.008,2.046l-23.389-.729-21.138,36.612-18.687-32.365a103.636,103.636,0,1,0-168.668,0l-18.687,32.365L780.941,849.84l-23.39.729a3.117,3.117,0,0,1-3.008-2.046,159,159,0,0,1-7.16-26.765,3.115,3.115,0,0,1,1.763-3.363l20.424-10.958V780.259l-20.592-11.047a3.132,3.132,0,0,1-1.6-3.274,158.631,158.631,0,0,1,7.161-26.764,3.11,3.11,0,0,1,3.123-2.041l23.274.724,13.588-23.535-12.3-19.847a3.1,3.1,0,0,1,.379-3.757A159.9,159.9,0,0,1,802.1,671.25a3.12,3.12,0,0,1,3.627-.268l19.846,12.3L849.1,669.69l-.729-23.389a3.115,3.115,0,0,1,2.047-3.008,159.018,159.018,0,0,1,26.764-7.161,3.116,3.116,0,0,1,3.364,1.763l10.957,20.424Z" transform="translate(-695.568 -636.085)" fill="#1c2773"/>
  <path id="Path_67505" data-name="Path 67505" d="M920.98,994.207c66.676-14.175,106.978-61.887,142.343-14.753-14.973-95.26-66.144-185.078-120.474-220.195,35.777,80,26.027,166.891-21.869,234.948Z" transform="translate(-754.432 -677.841)" fill="#0b9ae2" fill-rule="evenodd"/>
  <path id="Path_67506" data-name="Path 67506" d="M888.694,818.415c4.075,61.072-.512,119.463-17,174.926-11.9-15.894-62.592-8.716-105.359,20.919,56.78-51.286,98.84-115.457,122.361-195.845Z" transform="translate(-702.008 -697.894)" fill="#0b9ae2" fill-rule="evenodd"/>
</svg>
