<svg xmlns="http://www.w3.org/2000/svg" width="31" height="31" viewBox="0 0 31 31" fill="none">
<path d="M25.0713 16.7916C24.7871 16.7916 24.49 16.7012 24.2059 16.6366C23.6309 16.508 23.0655 16.3397 22.5138 16.1328C21.9146 15.9148 21.2559 15.9262 20.6645 16.1646C20.0731 16.4031 19.5909 16.8518 19.3105 17.4245L19.0263 18.0187C17.7718 17.3072 16.613 16.4391 15.5775 15.4353C14.5737 14.3999 13.7057 13.241 12.9942 11.9866L13.5884 11.7153C14.1611 11.4349 14.6098 10.9526 14.8483 10.3613C15.0867 9.76989 15.098 9.11122 14.88 8.512C14.6749 7.95533 14.5066 7.38577 14.3763 6.807C14.3117 6.52284 14.26 6.22575 14.2213 5.94159C14.0644 5.03176 13.5879 4.20784 12.8775 3.61819C12.167 3.02854 11.2694 2.71191 10.3463 2.72534H6.45837C5.91232 2.72462 5.37227 2.83932 4.87365 3.06192C4.37502 3.28452 3.92908 3.60999 3.56504 4.017C3.19345 4.43505 2.91677 4.9286 2.75401 5.46371C2.59124 5.99883 2.54625 6.56285 2.62212 7.117C3.32426 12.4931 5.78052 17.4873 9.61004 21.3253C13.448 25.1549 18.4423 27.6111 23.8184 28.3133C23.986 28.3261 24.1544 28.3261 24.3221 28.3133C25.2746 28.3146 26.1943 27.9652 26.9055 27.3316C27.3125 26.9675 27.6379 26.5216 27.8605 26.023C28.0831 25.5244 28.1978 24.9843 28.1971 24.4383V20.5633C28.1902 19.6708 27.8753 18.808 27.3058 18.1208C26.7363 17.4336 25.947 16.9641 25.0713 16.7916ZM25.7042 24.5416C25.7038 24.7218 25.6656 24.9 25.5922 25.0646C25.5188 25.2292 25.4118 25.3767 25.278 25.4974C25.1364 25.6264 24.9679 25.7223 24.7847 25.7781C24.6015 25.834 24.4082 25.8484 24.2188 25.8203C19.3986 25.1908 14.9191 22.9942 11.47 19.5687C8.01802 16.1166 5.80224 11.6215 5.16671 6.78117C5.13865 6.59173 5.15306 6.39841 5.20891 6.21523C5.26476 6.03204 5.36064 5.86357 5.48962 5.722C5.61184 5.58657 5.76136 5.47857 5.92834 5.4051C6.09531 5.33163 6.27595 5.29436 6.45837 5.29575H10.3334C10.632 5.28845 10.9238 5.38486 11.1593 5.56855C11.3949 5.75224 11.5594 6.01188 11.625 6.30325C11.625 6.652 11.7413 7.01367 11.8188 7.36242C11.9681 8.03908 12.1667 8.70391 12.413 9.35158L10.6046 10.2041C10.2938 10.3468 10.0523 10.6069 9.93296 10.9274C9.80377 11.2419 9.80377 11.5946 9.93296 11.9091C11.7919 15.891 14.9927 19.0918 18.9746 20.9508C19.2891 21.0799 19.6418 21.0799 19.9563 20.9508C20.2768 20.8315 20.5369 20.5899 20.6796 20.2791L21.4934 18.4708C22.1598 18.7137 22.8415 18.9122 23.5342 19.0649C23.87 19.1424 24.2317 19.207 24.5805 19.2587C24.8718 19.3243 25.1315 19.4889 25.3152 19.7244C25.4988 19.9599 25.5953 20.2518 25.588 20.5503L25.7042 24.5416ZM18.0834 2.58325C17.7863 2.58325 17.4763 2.58325 17.1792 2.58325C16.8366 2.61237 16.5197 2.77638 16.298 3.03921C16.0764 3.30203 15.9682 3.64214 15.9973 3.98471C16.0264 4.32728 16.1905 4.64425 16.4533 4.8659C16.7161 5.08754 17.0562 5.1957 17.3988 5.16659H18.0834C20.1388 5.16659 22.11 5.9831 23.5634 7.43651C25.0169 8.88991 25.8334 10.8612 25.8334 12.9166C25.8334 13.1491 25.8334 13.3687 25.8334 13.6012C25.8047 13.9419 25.9124 14.2801 26.1327 14.5416C26.3531 14.8031 26.6681 14.9666 27.0088 14.9962H27.1121C27.4355 14.9975 27.7476 14.8775 27.9867 14.6598C28.2259 14.4422 28.3747 14.1428 28.4038 13.8208C28.4038 13.5237 28.4038 13.2137 28.4038 12.9166C28.4038 10.1783 27.3169 7.55188 25.3818 5.61438C23.4467 3.67687 20.8217 2.58667 18.0834 2.58325ZM20.6667 12.9166C20.6667 13.2592 20.8028 13.5877 21.045 13.8299C21.2873 14.0722 21.6158 14.2083 21.9584 14.2083C22.3009 14.2083 22.6295 14.0722 22.8717 13.8299C23.114 13.5877 23.25 13.2592 23.25 12.9166C23.25 11.5463 22.7057 10.2321 21.7368 9.2632C20.7678 8.29426 19.4537 7.74992 18.0834 7.74992C17.7408 7.74992 17.4123 7.886 17.17 8.12824C16.9278 8.37047 16.7917 8.69901 16.7917 9.04158C16.7917 9.38416 16.9278 9.7127 17.17 9.95493C17.4123 10.1972 17.7408 10.3333 18.0834 10.3333C18.7685 10.3333 19.4256 10.6054 19.9101 11.0899C20.3945 11.5744 20.6667 12.2314 20.6667 12.9166Z" fill="white"/>
</svg>
