<svg xmlns="http://www.w3.org/2000/svg" width="217.661" height="310.944" viewBox="0 0 217.661 310.944">
  <g id="Group_176143" data-name="Group 176143" opacity="0.46">
    <path id="Path_67518" data-name="Path 67518" d="M48.257,208.985A51.741,51.741,0,0,0,9,259.26V295.4a15.547,15.547,0,0,0,15.547,15.547H211.114A15.547,15.547,0,0,0,226.661,295.4V259.26A51.741,51.741,0,0,0,187.4,208.991l-43.662-10.919v-4.364c13.764-7.4,27.467-18.781,32.053-30.628a80.289,80.289,0,0,0,3.84-18.532,20.761,20.761,0,0,0,15.931-20.17,20.548,20.548,0,0,0-3-10.588,15.516,15.516,0,0,0,13.365-15.324V88.1a10.365,10.365,0,0,0-10.365-10.365V72.554a62.189,62.189,0,0,0-47-60.334A15.547,15.547,0,0,0,133.378,0H102.283a15.548,15.548,0,0,0-15.19,12.223,62.189,62.189,0,0,0-47,60.331v5.182A10.365,10.365,0,0,0,29.73,88.1V98.466A15.516,15.516,0,0,0,43.1,113.79a20.548,20.548,0,0,0-3,10.588,20.761,20.761,0,0,0,15.931,20.17A80.534,80.534,0,0,0,59.86,163.08c4.6,11.847,18.294,23.238,32.058,30.628v4.364Zm69.574,19.04a25.912,25.912,0,0,0,25.015-19.5l17.807,4.452-5.182,36.453a5.219,5.219,0,0,1-5.141,4.509H85.337a5.182,5.182,0,0,1-5.13-4.456l-5.183-36.506,17.807-4.452a25.912,25.912,0,0,0,25,19.5Zm62.189,72.554H55.642V217.821L64.9,215.5l5.058,35.484A15.511,15.511,0,0,0,85.337,264.3h64.987a15.547,15.547,0,0,0,15.392-13.364l5.048-35.434,9.256,2.317ZM19.365,295.4V259.26a41.361,41.361,0,0,1,25.912-38.4v79.721H24.547A5.182,5.182,0,0,1,19.365,295.4ZM216.3,259.26V295.4a5.182,5.182,0,0,1-5.182,5.182h-20.73V220.858a41.361,41.361,0,0,1,25.912,38.4ZM50.459,72.554A51.777,51.777,0,0,1,86.736,23.134v28.69a5.182,5.182,0,1,0,10.365,0V15.547a5.182,5.182,0,0,1,5.182-5.182h31.094a5.182,5.182,0,0,1,5.182,5.182V51.824a5.182,5.182,0,1,0,10.365,0V23.134A51.777,51.777,0,0,1,185.2,72.554v5.182H50.459ZM40.094,98.466V88.1H195.566V98.466a5.182,5.182,0,0,1-5.182,5.182H45.277A5.182,5.182,0,0,1,40.094,98.466Zm29.431,60.857A85.224,85.224,0,0,1,66,139.629a5.182,5.182,0,0,0-5.172-4.887,10.365,10.365,0,0,1,0-20.73H174.837a10.365,10.365,0,0,1,0,20.73,5.182,5.182,0,0,0-5.182,4.861,85.042,85.042,0,0,1-3.534,19.719c-6.26,16.148-37.064,32.426-48.29,32.426S75.8,175.471,69.525,159.323Zm48.305,42.791a46.124,46.124,0,0,0,15.547-3.591v3.591a15.547,15.547,0,0,1-31.094,0v-3.591a46.123,46.123,0,0,0,15.547,3.591Z" transform="translate(-9 0)" fill="#133658"/>
  </g>
</svg>
