<svg xmlns="http://www.w3.org/2000/svg" width="292.805" height="292.588" viewBox="0 0 292.805 292.588">
  <g id="Group_176144" data-name="Group 176144" opacity="0.35">
    <path id="worker_with_pencil" data-name="worker with pencil" d="M292.588,115.816c0-2.012.366-.61-24.992-51.325a6.1,6.1,0,0,0-10.85,0c-25.114,49.679-25.114,49.313-25.114,51.325v90.032l-42.669-15.117V174.578A54.312,54.312,0,0,0,201.154,140.2h6.1a18.287,18.287,0,0,0,11.4-32.429,12.191,12.191,0,0,0,.792-4.145c0-10.667,1.585-18.287-6.1-22.676v-7.8a54.86,54.86,0,0,0-48.765-54.495V6.1a6.1,6.1,0,0,0-6.1-6.1H134.1a6.1,6.1,0,0,0-6.1,6.1V18.652A54.86,54.86,0,0,0,79.243,73.147v7.8a12.191,12.191,0,0,0-6.1,10.484c0,13.106,0,13.532.792,16.336a18.287,18.287,0,0,0,11.4,32.429h6.1a54.312,54.312,0,0,0,12.191,34.379v16.153L44.742,211.517A67.051,67.051,0,0,0,0,274.789v11.7a6.1,6.1,0,0,0,12.191,0v-11.7a54.86,54.86,0,0,1,36.574-51.751l18.287-6.461v18.287A24.382,24.382,0,0,0,54.86,256.015v30.478a6.1,6.1,0,0,0,12.191,0V256.015a12.191,12.191,0,0,1,12.191-12.191h134.1a12.191,12.191,0,0,1,12.191,12.191v30.478a6.1,6.1,0,0,0,9.143,5.181,6.1,6.1,0,0,0,9.143-5.181V124.533a69.672,69.672,0,0,0,12.191,2.377V286.493a6.1,6.1,0,0,0,12.191,0v-159.4a57.3,57.3,0,0,0,12.191-2.377V286.493a6.1,6.1,0,0,0,12.191,0C292.588,49.679,293.076,134.408,292.588,115.816Zm-28.1-30.478h-4.633l2.316-4.633ZM207.25,231.632h-6.1V207.981l6.1,2.133Zm-91.434-45.839a54.86,54.86,0,0,0,60.956,0v7.01l-30.478,35.537L115.816,192.8Zm68.941,16.4,4.206,1.463v27.979H159.521Zm4.206-61.992a42.669,42.669,0,1,1-85.338,0V115.816h85.338Zm18.287-12.191h-6.1V115.816h6.1a6.1,6.1,0,0,1,0,12.191ZM140.2,12.191H152.39V48.765H140.2ZM91.434,73.147a42.669,42.669,0,0,1,36.574-42.181V54.86a6.1,6.1,0,0,0,6.1,6.1h24.382a6.1,6.1,0,0,0,6.1-6.1V30.966a42.669,42.669,0,0,1,36.573,42.181v6.1H182.868v-6.1a6.1,6.1,0,1,0-12.191,0v6.1h-54.86v-6.1a6.1,6.1,0,1,0-12.191,0v6.1H91.434Zm-6.1,18.287H207.25v12.191H85.338Zm0,36.574a6.1,6.1,0,0,1,0-12.191h6.1v12.191Zm22.493,74.183,25.236,29.442H103.625V203.653ZM79.243,212.309l12.191-4.328v23.651H79.243Zm140.2,20.176V214.2l12.191,4.328V239.8A24.687,24.687,0,0,0,219.441,232.486ZM246.2,112.525c9.448-18.957,6.644-15,9.814-15,13.167,0,12.74,0,14.325-.427l7.8,15.6a52.666,52.666,0,0,1-31.941-.183Z" transform="translate(0 0)" fill="#133658"/>
  </g>
</svg>
