<svg xmlns="http://www.w3.org/2000/svg" width="293.342" height="293.36" viewBox="0 0 293.342 293.36">
  <g id="Group_176145" data-name="Group 176145" opacity="0.2">
    <path id="Path_67519" data-name="Path 67519" d="M287.516,136.43,240.4,112.875l47.111-23.557a11.469,11.469,0,0,0,0-20.5L152.294,1.208a11.472,11.472,0,0,0-10.25,0L6.823,68.819a11.469,11.469,0,0,0,0,20.5l47.11,23.557L6.821,136.43a11.469,11.469,0,0,0,0,20.5l47.112,23.557L6.822,204.041a11.469,11.469,0,0,0,0,20.5l135.221,67.611a11.465,11.465,0,0,0,10.25,0L287.515,224.54a11.469,11.469,0,0,0,0-20.5L240.4,180.486l47.111-23.557a11.469,11.469,0,0,0,0-20.5ZM147.169,24.271l109.6,54.8-109.6,54.8-109.6-54.8Zm109.6,190.02-109.6,54.8-109.6-54.8L79.558,193.3l62.485,31.242a11.465,11.465,0,0,0,10.25,0L214.779,193.3Zm-109.6-12.813-109.6-54.8,41.986-20.994,62.485,31.242a11.465,11.465,0,0,0,10.25,0l62.485-31.243,41.986,20.994Zm0,0" transform="translate(-0.498 0)" fill="#133658"/>
  </g>
</svg>
