<svg xmlns="http://www.w3.org/2000/svg" width="276.606" height="276.606" viewBox="0 0 276.606 276.606">
  <g id="Group_176146" data-name="Group 176146" opacity="0.21">
    <path id="Path_67520" data-name="Path 67520" d="M140.3,278.606a138.3,138.3,0,1,1,138.3-138.3,138.3,138.3,0,0,1-138.3,138.3Zm0-256.848A118.545,118.545,0,1,0,258.848,140.3,118.545,118.545,0,0,0,140.3,21.758Z" transform="translate(-2 -2)" fill="#133658"/>
    <path id="Path_67521" data-name="Path 67521" d="M74.273,145.3a9.879,9.879,0,0,1-6.125-2.173L18.754,103.615A9.879,9.879,0,0,1,15,95.909V16.879a9.879,9.879,0,1,1,19.758,0V91.167L80.4,127.719A9.874,9.874,0,0,1,74.273,145.3Z" transform="translate(113.424 42.394)" fill="#133658"/>
  </g>
</svg>
